<svg width="285" height="79" viewBox="0 0 285 79" fill="none" xmlns="http://www.w3.org/2000/svg">
<path opacity="0.5" d="M166.798 0.421559C149.198 0.542673 132.604 1.92198 129.18 3.861C122.332 7.7394 103.802 23.4021 103.802 23.4021C103.802 23.4021 54.8146 27.8738 47.6261 28.8969C40.4376 29.92 9.84864 36.0315 9.18499 38.5528C8.52133 41.0745 5.52644 48.305 6.87277 52.3343C6.87277 52.3343 0.851964 52.3469 0.687824 53.6914C0.523315 55.0359 18.946 68.4378 22.793 68.9339C26.6403 69.4297 33.4956 68.5746 34.3305 67.9006C34.8596 67.4732 34.6494 64.2797 35.913 61.7812C35.6861 60.5213 35.5682 59.2443 35.5611 57.964C35.5484 52.0887 37.86 46.4491 41.9864 42.2857C46.1129 38.1226 51.7165 35.7768 57.5649 35.7649C69.7424 35.7398 79.6355 45.6371 79.66 57.8716C79.6662 63.1101 77.8244 68.181 74.4607 72.1844C74.48 72.195 74.8083 72.3524 74.8083 72.3524C74.8083 72.3524 165.81 70.8755 200.95 63.3925C200.434 61.5113 200.169 59.57 200.159 57.619C200.147 51.7437 202.457 46.104 206.584 41.941C210.711 37.7776 216.314 35.4322 222.163 35.4199C233.421 35.4044 242.884 43.9128 244.112 55.1558C260.572 52.9971 278.237 50.1081 281.618 47.3055C288.228 41.8271 280.384 22.5991 280.384 22.5991C280.384 22.5991 285.103 17.1246 283.209 16.6528C281.316 16.1822 280.209 15.6396 276.198 16.6572C272.187 17.6736 264.498 19.7065 264.498 19.7065C264.498 19.7065 225.349 10.7156 210.453 4.5306C203.005 1.43902 184.398 0.30156 166.798 0.422665L166.798 0.421559ZM169.635 4.2538C176.033 4.2149 181.521 4.48154 184.331 5.21773C193.322 7.57434 201.383 17.0619 201.383 17.0619C200.685 22.0532 119.336 24.3617 116.968 22.9416C114.601 21.5208 127.108 9.14003 133.017 7.22721C137.079 5.91184 155.559 4.34093 169.635 4.2538ZM223.031 19.6309C223.031 19.6309 182.66 36.6766 142.856 34.744C103.053 32.8117 93.7135 28.5325 24.6484 36.2026C24.6484 36.2026 82.3017 26.1348 120.769 28.406C159.234 30.6768 223.031 19.6309 223.031 19.6309ZM277.199 25.2195C277.199 25.2195 276.498 29.0222 274.609 29.9765C272.719 30.9309 238.434 34.804 238.434 34.804L277.199 25.2195ZM57.3643 38.0577C46.4847 38.0805 37.6133 47.0306 37.6362 57.9608C37.6592 68.8909 46.568 77.8005 57.4475 77.7777C68.3271 77.7549 77.1952 68.8081 77.1723 57.8779C77.1494 46.9477 68.2438 38.0349 57.3643 38.0577ZM222.196 37.7122C211.317 37.735 202.45 46.6851 202.473 57.6153C202.496 68.5454 211.4 77.455 222.279 77.4321C233.158 77.4093 242.031 68.4626 242.008 57.5324C241.985 46.6022 233.075 37.6894 222.196 37.7122ZM197.774 42.255C197.774 42.255 192.114 49.6315 192.368 57.9467C192.368 57.9467 157.613 63.0091 143.896 62.5628C143.896 62.5628 181.96 57.2556 187.866 54.1545C187.866 54.1545 187.018 44.178 197.774 42.255ZM57.3777 44.4652C64.8095 44.4497 70.7775 50.4244 70.7932 57.8913C70.8088 65.3582 64.8659 71.3545 57.4341 71.3701C50.0016 71.3857 44.0299 65.4143 44.0142 57.9474C43.9986 50.4805 49.9452 44.4808 57.3777 44.4652ZM222.209 44.1197C229.642 44.1041 235.614 50.0788 235.629 57.5458C235.645 65.0127 229.698 71.009 222.266 71.0246C214.833 71.0402 208.866 65.0688 208.851 57.6019C208.835 50.135 214.777 44.1353 222.209 44.1197ZM18.4266 50.4565C22.7575 50.4327 26.9253 50.6906 26.9253 50.6906L10.2622 55.0026C10.2622 55.0026 7.65897 54.1769 8.95481 51.917C9.60291 50.7871 14.0961 50.4808 18.4266 50.4565Z" fill="#EFF2F6" stroke="#240A38" stroke-width="0.749999"/>
</svg>
